<?xml version="1.0" encoding="utf-8"?>
<!-- Generator: Adobe Illustrator 25.4.1, SVG Export Plug-In . SVG Version: 6.00 Build 0)  -->
<svg version="1.1" id="Layer_1" xmlns="http://www.w3.org/2000/svg" xmlns:xlink="http://www.w3.org/1999/xlink" x="0px" y="0px"
	 viewBox="0 0 506.1 105.9" style="enable-background:new 0 0 506.1 105.9;" xml:space="preserve">
<style type="text/css">
	.st0{fill:url(#SVGID_1_);}
	.st1{fill:url(#SVGID_00000104680408458903025320000016823302934518707644_);}
	.st2{opacity:0.71;fill:#F99D1C;enable-background:new    ;}
	.st3{fill:#FFFFFF;}
	.st4{fill:url(#SVGID_00000170257104337211748700000010749009302675397768_);}
	.st5{font-family:'RedHatDisplay-Black';}
	.st6{font-size:68.532px;}
	.st7{fill:url(#SVGID_00000179617944757976359290000003864606977467179184_);}
	.st8{fill:url(#SVGID_00000034078683294452989190000016367234577674970253_);}
	.st9{fill:url(#SVGID_00000137836761188595638210000012343098391382773419_);}
	.st10{fill:url(#SVGID_00000027568230686853032460000016834087245810992821_);}
	.st11{fill:url(#SVGID_00000147901115103785127950000018243108880753111742_);}
	.st12{fill:url(#SVGID_00000034080430265299826980000012415728297175754135_);}
	.st13{fill:url(#SVGID_00000103972025963380431660000004538091289083678898_);}
	.st14{fill:url(#SVGID_00000127023703674275230370000008388364512803352736_);}
</style>
<g>
	
		<linearGradient id="SVGID_1_" gradientUnits="userSpaceOnUse" x1="51.3296" y1="54.0264" x2="41.2667" y2="51.5105" gradientTransform="matrix(1 0 0 -1 0 107.2756)">
		<stop  offset="0" style="stop-color:#25BBED"/>
		<stop  offset="1" style="stop-color:#0E7DC1"/>
	</linearGradient>
	<path class="st0" d="M110.1,45.4v4.2L67.3,68.7L58,72.9c-3.3,1.4-6.1,4.2-7.9,7.5c-1.4,2.3-2.3,5.1-2.3,7.5l0,0l0,0l-1.4-6.1l0,0
		L38.4,44c-1.4-5.6,2.3-11.2,8.4-14L95.2,8.6L110.1,45.4z"/>
	<g>
		
			<linearGradient id="SVGID_00000106139241519906653940000016973964198262016145_" gradientUnits="userSpaceOnUse" x1="75.231" y1="-1.7773" x2="91.0114" y2="-28.3545" gradientTransform="matrix(1 -0.2761 0 -1 0 83.5839)">
			<stop  offset="0" style="stop-color:#F05822"/>
			<stop  offset="1" style="stop-color:#FCD600"/>
		</linearGradient>
		<path style="fill:url(#SVGID_00000106139241519906653940000016973964198262016145_);" d="M63.1,78.5l-5.6,1.9L63.1,78.5l30.7-8.8
			l10.2-3.3l2.8-0.9l3.3,7.9l-6.1,1.4l-10.2,1.9l-33.1,7L58,84.1l2.8-0.5l33.1-5.1l10.2-1.4l2.8-0.5l3.3,8.8l-49.4,4.2L57,90.1h3.7
			l45.2-1.9l4.2,6.5h-2.8l-44.2-0.5h-6.5c-4.2,0-7-2.8-7-7c0-4.7,3.3-9.3,7.9-11.6l49.8-21.9l2.8-1.4v9.8L63.1,78.5z"/>
		<path class="st2" d="M110.1,52.4v2.3L70.1,72.4c-2.8,1.4-5.1,3.3-7,5.6c0,0,0,0,0,0.5l0,0c-0.9,1.4-1.9,3.3-2.3,5.1l0,0
			c-0.5,0.9-0.5,2.3-0.5,3.3c0,0.9,0,1.9,0.5,2.3l0,0c0.5,1.9,1.4,3.3,2.8,4.7H57c-4.2,0-7-2.8-7-7c0-4.7,3.3-9.3,7.9-11.6
			l49.4-21.4L110.1,52.4z"/>
		<path class="st3" d="M107.3,94.3H57c-4.2,0-7-2.8-7-7c0-4.7,3.3-9.3,7.9-11.6l49.4-21.9l2.8-1.4v-2.8L57.5,72.9
			c-6.1,2.8-10.2,8.8-10.2,14.9l0,0c0,5.6,3.7,9.3,8.8,9.3l54,0.5v-2.8L107.3,94.3z"/>
		<g>
			<polygon class="st2" points="70.1,76.6 70.1,92.9 75.2,89.7 79.9,92 79.9,73.4 			"/>
			<polygon class="st3" points="82.2,90.6 77.1,88.7 72,92 72,75.7 82.2,72.9 			"/>
		</g>
		
			<linearGradient id="SVGID_00000088832552384045273460000016932183996976193920_" gradientUnits="userSpaceOnUse" x1="78.4715" y1="18.8269" x2="76.5876" y2="85.9067" gradientTransform="matrix(1 0 0 -1 0 107.2756)">
			<stop  offset="0" style="stop-color:#2CA2DB"/>
			<stop  offset="1" style="stop-color:#1C6AB3"/>
		</linearGradient>
		<path style="fill:url(#SVGID_00000088832552384045273460000016932183996976193920_);" d="M56.6,69.2c-4.2,1.9-7.5,5.1-9.3,8.4l0,0
			l0,0c0,0-0.9,1.4-1.4,4.2l0,0l1.4,6.1l0,0l0,0l0,0l0,0l0,0l0,0l0,0l0,0v-0.5c0,0,0,0,0-0.5s0-0.5,0-0.9c0,0,0,0,0-0.5s0-0.5,0-0.9
			l0,0v-0.5l0,0c0-0.5,0-0.5,0.5-0.9c0,0,0,0,0-0.5c0-0.5,0-0.5,0.5-0.9l0,0c0-0.5,0-0.5,0.5-0.9l0,0c0-0.5,0.5-0.5,0.5-0.9
			c1.9-3.3,4.7-6.1,7.9-7.5l9.3-4.2l43.3-19.1v-3.7L56.6,69.2z M47.3,87.8L47.3,87.8L47.3,87.8L47.3,87.8z"/>
	</g>
</g>
<g>
	<g id="_x23_1f71f2ff">
		<path class="st3" d="M66.6,31.1l0.3-0.1c0.4-0.1,0.9-0.1,1.3-0.1c0.3,0.1,0.6,0.2,0.9,0.4c0.4,0.2,0.8,0.6,1.1,1
			c0.3,0.4,0.5,0.8,0.8,1.2c0.3,0.4,0.7,0.8,1.1,1.1c0.3,0.2,0.6,0.3,1,0.4c0.4,0.1,0.9,0,1.3-0.1c1-0.4,2-0.7,3.1-1.1
			c0.3-0.1,0.5-0.2,0.8-0.3c0.4-0.1,0.8-0.1,1.1-0.1c0.2,0,0.3,0.1,0.5,0.2c0.3,0.1,0.5,0.3,0.8,0.5c0.7,0.6,1.3,1.2,2,1.8
			c-0.2,0.1-0.4,0.2-0.6,0.2c-0.2,0.1-0.4,0.1-0.6,0.2c-1.2,0.4-2.4,0.9-3.6,1.3c-0.4,0.1-0.7,0.2-1,0.4c-0.3,0.1-0.5,0.2-0.8,0.3
			c-0.4,0.1-0.7,0.1-1.1,0.1c-0.5-0.1-0.9-0.2-1.3-0.5c-0.4-0.3-0.7-0.5-1-0.8c-0.7-0.6-1.4-1.3-2.1-1.8c-0.3-0.2-0.6-0.4-1-0.5
			c-0.4-0.1-0.8-0.1-1.3,0c-0.5,0.1-1,0.3-1.5,0.4c-0.4,0.1-0.7,0.3-1.1,0.4c0.2-1.1,0.4-2.1,0.6-3.2C66.4,31.9,66.5,31.5,66.6,31.1
			z"/>
		<path class="st3" d="M66.8,41c0.1,0,0.2-0.1,0.3-0.1c0.6-0.2,1.2-0.4,1.8-0.7c0.3-0.1,0.6-0.2,1-0.3c0.5-0.2,1.1-0.3,1.6-0.3
			c0.3,0,0.7,0.1,1,0.3c0.4,0.2,0.7,0.5,1.1,0.8c0.6,0.6,1.3,1.1,1.9,1.7c0.4,0.3,0.8,0.7,1.2,1c0.3,0.2,0.6,0.4,1,0.5
			c0.5,0.1,1.1,0.1,1.6,0c0.5-0.1,1.1-0.3,1.6-0.5c2.5-0.9,4.9-1.8,7.4-2.7c0.2-0.1,0.5-0.2,0.7-0.3c0.3-0.1,0.6-0.2,1-0.3
			c0.5-0.2,1-0.3,1.5-0.2c0.4,0.1,0.8,0.3,1.1,0.5c0.7,0.6,1.4,1.2,2.1,1.8c0.2,0.2,0.5,0.4,0.7,0.6c-4.1,1.5-8.2,3-12.3,4.5
			c-1,0.3-2.1,0.4-3.1,0c-0.4-0.2-0.8-0.4-1.2-0.8c-0.7-0.6-1.3-1.1-2-1.7c-0.5-0.4-0.9-0.8-1.5-1c-0.4-0.2-0.8-0.2-1.2-0.2
			c-0.7,0-1.3,0.2-1.9,0.3c-0.4,0.1-0.8,0.2-1.1,0.4c-0.7,0.3-1.4,0.5-2.1,0.8c-0.4,0.2-0.8,0.3-1.2,0.5c-1,0.4-2.1,0.8-3.1,1.1
			c-0.4,0.1-0.7,0.3-1.1,0.4c0.3-1.6,0.6-3.1,1-4.7c0-0.2,0-0.3,0.1-0.5c0.1,0,0.1-0.1,0.2-0.1C65.3,41.5,66.1,41.2,66.8,41z"/>
	</g>
	<g id="_x23_61eabcff">
		<path class="st3" d="M65.5,36.7c0-0.1,0-0.2,0.1-0.3c0.3-0.1,0.6-0.2,0.9-0.3c0.6-0.2,1.1-0.4,1.7-0.6c0.4-0.1,0.8-0.1,1.1-0.1
			c0.5,0,0.9,0.2,1.3,0.6c0.3,0.3,0.6,0.6,1,0.8c0.4,0.4,0.8,0.7,1.2,1.1c0.3,0.3,0.6,0.6,1,0.8c0.6,0.4,1.3,0.7,2,0.6
			c0.4,0,0.8-0.1,1.2-0.3c0.3-0.1,0.6-0.2,0.8-0.3c0.7-0.3,1.4-0.5,2.1-0.8c0.5-0.2,1.1-0.4,1.6-0.6c1.1-0.4,2.3-0.8,3.4-1.2
			c0.5-0.2,1-0.3,1.6-0.3c0.4,0,0.9,0.2,1.2,0.4c0.3,0.2,0.6,0.4,0.9,0.7c0.4,0.4,0.8,0.8,1.3,1.1c0.2,0.2,0.4,0.4,0.7,0.6
			c-0.3,0.1-0.7,0.2-1,0.4c-0.2,0.1-0.5,0.2-0.7,0.3c-0.6,0.2-1.3,0.5-1.9,0.7c-0.4,0.2-0.9,0.3-1.3,0.5c-0.3,0.1-0.7,0.3-1,0.4
			c-0.2,0.1-0.4,0.2-0.6,0.2c-0.4,0.1-0.8,0.3-1.2,0.4c-0.3,0.1-0.5,0.2-0.7,0.3c-0.5,0.2-1,0.4-1.5,0.5c-0.3,0.1-0.6,0.2-0.9,0.3
			c-0.3,0.1-0.6,0.2-0.9,0.2c-0.4,0.1-0.8,0-1.2-0.1c-0.5-0.2-0.9-0.5-1.3-0.9c-0.5-0.5-1-0.9-1.6-1.4c-0.2-0.2-0.4-0.4-0.6-0.5
			c-0.3-0.2-0.6-0.5-0.9-0.7c-0.4-0.3-0.8-0.4-1.2-0.5c-0.7-0.1-1.5,0-2.2,0.3c-0.3,0.1-0.7,0.2-1,0.3c-1.1,0.4-2.2,0.8-3.4,1.2
			c-0.2,0.1-0.4,0.1-0.5,0.2c0.2-0.9,0.4-1.7,0.5-2.6C65.2,37.8,65.4,37.3,65.5,36.7z"/>
	</g>
</g>
<g>
	<text transform="matrix(1 0 0 1 148.6521 77.4905)" class="st5 st6">Edu</text>
	<g>
		
			<linearGradient id="SVGID_00000046320059089701347650000018407906447595782062_" gradientUnits="userSpaceOnUse" x1="152.627" y1="52.9904" x2="276.5312" y2="52.9904">
			<stop  offset="0" style="stop-color:#25BBED"/>
			<stop  offset="1" style="stop-color:#0E7DC1"/>
		</linearGradient>
		<path style="fill:url(#SVGID_00000046320059089701347650000018407906447595782062_);" d="M152.6,77.5v-48h37.8v10.2h-26v8.6h17.2
			v9.9h-17.2v9h26.3v10.2H152.6z"/>
		
			<linearGradient id="SVGID_00000007408016592573646870000012662879979092878257_" gradientUnits="userSpaceOnUse" x1="152.627" y1="52.9904" x2="276.5312" y2="52.9904">
			<stop  offset="0" style="stop-color:#25BBED"/>
			<stop  offset="1" style="stop-color:#0E7DC1"/>
		</linearGradient>
		<path style="fill:url(#SVGID_00000007408016592573646870000012662879979092878257_);" d="M214,78c-3.4,0-6.5-0.8-9.4-2.5
			c-2.8-1.7-5-3.9-6.7-6.7c-1.6-2.8-2.5-6-2.5-9.4c0-3.5,0.8-6.6,2.5-9.4c1.7-2.8,3.9-5,6.8-6.7c2.9-1.6,6-2.5,9.6-2.5
			c1.7,0,3.3,0.2,4.9,0.6c1.6,0.4,3,1,4.4,1.8V29.5l11.1-1.7v49.7h-11v-2.7C220.8,76.9,217.6,78,214,78z M215.9,68.5
			c1.6,0,3-0.2,4.2-0.7c1.3-0.5,2.4-1.2,3.4-2.2V53c-1-0.9-2.1-1.6-3.4-2.1c-1.3-0.5-2.7-0.7-4.2-0.7c-1.8,0-3.4,0.4-4.8,1.2
			c-1.4,0.8-2.6,1.9-3.4,3.3c-0.8,1.4-1.3,3-1.3,4.7c0,1.7,0.4,3.3,1.3,4.7c0.8,1.4,2,2.5,3.4,3.3C212.5,68.1,214.1,68.5,215.9,68.5
			z"/>
		
			<linearGradient id="SVGID_00000103962851268462482700000017390417531307757444_" gradientUnits="userSpaceOnUse" x1="152.627" y1="52.9904" x2="276.5312" y2="52.9904">
			<stop  offset="0" style="stop-color:#25BBED"/>
			<stop  offset="1" style="stop-color:#0E7DC1"/>
		</linearGradient>
		<path style="fill:url(#SVGID_00000103962851268462482700000017390417531307757444_);" d="M255.7,78.2c-2.8,0-5.3-0.6-7.5-1.9
			c-2.2-1.2-3.9-3-5.1-5.2c-1.2-2.2-1.9-4.7-1.9-7.6V41.2h11.1v20.8c0,2,0.6,3.6,1.8,4.8c1.2,1.2,2.8,1.8,4.8,1.8
			c1.4,0,2.7-0.2,3.8-0.8c1.1-0.5,2-1.2,2.7-2.1V41.2h11.1v36.3h-11.1V75C262.7,77.1,259.4,78.2,255.7,78.2z"/>
	</g>
</g>
<g>
	<text transform="matrix(1 0 0 1 274.4759 78.7919)" class="st5 st6">TIRTA</text>
	<g>
		
			<linearGradient id="SVGID_00000180352146808220785630000007263130463439641218_" gradientUnits="userSpaceOnUse" x1="275.709" y1="54.8056" x2="485.0713" y2="54.8056">
			<stop  offset="0" style="stop-color:#F05822"/>
			<stop  offset="1" style="stop-color:#FCD600"/>
		</linearGradient>
		<path style="fill:url(#SVGID_00000180352146808220785630000007263130463439641218_);" d="M291.4,78.8V41.2h-15.7V30.8h43.2v10.4
			h-15.7v37.6H291.4z"/>
		
			<linearGradient id="SVGID_00000103227394266239794160000013342601447288629925_" gradientUnits="userSpaceOnUse" x1="275.709" y1="54.8056" x2="485.0713" y2="54.8056">
			<stop  offset="0" style="stop-color:#F05822"/>
			<stop  offset="1" style="stop-color:#FCD600"/>
		</linearGradient>
		<path style="fill:url(#SVGID_00000103227394266239794160000013342601447288629925_);" d="M324.1,78.8v-48h11.8v48H324.1z"/>
		
			<linearGradient id="SVGID_00000116948783566594246650000001845875438874377124_" gradientUnits="userSpaceOnUse" x1="275.709" y1="54.8056" x2="485.0713" y2="54.8056">
			<stop  offset="0" style="stop-color:#F05822"/>
			<stop  offset="1" style="stop-color:#FCD600"/>
		</linearGradient>
		<path style="fill:url(#SVGID_00000116948783566594246650000001845875438874377124_);" d="M343.8,78.8v-48h24.5
			c3.3,0,6.2,0.7,8.8,2c2.6,1.3,4.6,3.1,6,5.4c1.4,2.3,2.2,4.9,2.2,7.9c0,3-0.8,5.7-2.5,8.1c-1.6,2.4-3.8,4.2-6.5,5.4l10.5,19.2
			h-13.2l-9-17.5h-9v17.5H343.8z M355.6,51.7h11.7c1.8,0,3.3-0.5,4.4-1.5c1.1-1,1.7-2.3,1.7-3.9c0-1.6-0.6-2.9-1.7-3.9
			c-1.1-1-2.6-1.5-4.4-1.5h-11.7V51.7z"/>
		
			<linearGradient id="SVGID_00000029741203975558294230000001850068565764391070_" gradientUnits="userSpaceOnUse" x1="275.709" y1="54.8056" x2="485.0713" y2="54.8056">
			<stop  offset="0" style="stop-color:#F05822"/>
			<stop  offset="1" style="stop-color:#FCD600"/>
		</linearGradient>
		<path style="fill:url(#SVGID_00000029741203975558294230000001850068565764391070_);" d="M404.3,78.8V41.2h-15.7V30.8h43.2v10.4
			h-15.7v37.6H404.3z"/>
		
			<linearGradient id="SVGID_00000165919671210191796780000011651018530371168184_" gradientUnits="userSpaceOnUse" x1="275.709" y1="54.8056" x2="485.0713" y2="54.8056">
			<stop  offset="0" style="stop-color:#F05822"/>
			<stop  offset="1" style="stop-color:#FCD600"/>
		</linearGradient>
		<path style="fill:url(#SVGID_00000165919671210191796780000011651018530371168184_);" d="M432.5,78.8l19.7-48h13.5l19.4,48h-12.7
			l-4.4-11.6h-18.7l-4.5,11.6H432.5z M452.8,57.8h11.7l-5.8-15.4L452.8,57.8z"/>
	</g>
</g>
</svg>
