<?xml version="1.0" encoding="utf-8"?>
<!-- Generator: Adobe Illustrator 25.4.1, SVG Export Plug-In . SVG Version: 6.00 Build 0)  -->
<svg version="1.1" id="Layer_1" xmlns="http://www.w3.org/2000/svg" xmlns:xlink="http://www.w3.org/1999/xlink" x="0px" y="0px"
	 viewBox="0 0 128 105.9" style="enable-background:new 0 0 128 105.9;" xml:space="preserve">
<style type="text/css">
	.st0{fill:url(#SVGID_1_);}
	.st1{fill:url(#SVGID_00000097486821615000126780000011207852251638931887_);}
	.st2{opacity:0.71;fill:#F99D1C;enable-background:new    ;}
	.st3{fill:#FFFFFF;}
	.st4{fill:url(#SVGID_00000063615631747218861930000010635097068984609929_);}
</style>
<g>
	
		<linearGradient id="SVGID_1_" gradientUnits="userSpaceOnUse" x1="38.9523" y1="54.1764" x2="28.8894" y2="51.6605" gradientTransform="matrix(1 0 0 -1 0 107.2756)">
		<stop  offset="0" style="stop-color:#25BBED"/>
		<stop  offset="1" style="stop-color:#0E7DC1"/>
	</linearGradient>
	<path class="st0" d="M97.8,45.3v4.2L54.9,68.6l-9.3,4.2c-3.3,1.4-6.1,4.2-7.9,7.5c-1.4,2.3-2.3,5.1-2.3,7.5l0,0l0,0L34,81.6l0,0
		L26,43.9c-1.4-5.6,2.3-11.2,8.4-14L82.9,8.5L97.8,45.3z"/>
	<g>
		
			<linearGradient id="SVGID_00000075848865406428866410000010229188985127575994_" gradientUnits="userSpaceOnUse" x1="62.8538" y1="-50.3928" x2="78.6342" y2="-76.9701" gradientTransform="matrix(1 -0.2761 0 -1 0 31.401)">
			<stop  offset="0" style="stop-color:#F05822"/>
			<stop  offset="1" style="stop-color:#FCD600"/>
		</linearGradient>
		<path style="fill:url(#SVGID_00000075848865406428866410000010229188985127575994_);" d="M50.7,78.3l-5.6,1.9L50.7,78.3l30.7-8.8
			l10.2-3.3l2.8-0.9l3.3,7.9l-6.1,1.4l-10.2,1.9l-33.1,7l-2.8,0.5l2.8-0.5l33.1-5.1l10.2-1.4l2.8-0.5l3.3,8.8l-49.4,4.2L44.7,90h3.7
			l45.2-1.9l4.2,6.5H95l-44.2-0.5h-6.5c-4.2,0-7-2.8-7-7c0-4.7,3.3-9.3,7.9-11.6L95,53.6l2.8-1.4V62L50.7,78.3z"/>
		<path class="st2" d="M97.8,52.3v2.3L57.7,72.3c-2.8,1.4-5.1,3.3-7,5.6c0,0,0,0,0,0.5l0,0c-0.9,1.4-1.9,3.3-2.3,5.1l0,0
			c-0.5,0.9-0.5,2.3-0.5,3.3c0,0.9,0,1.9,0.5,2.3l0,0c0.5,1.9,1.4,3.3,2.8,4.7h-6.5c-4.2,0-7-2.8-7-7c0-4.7,3.3-9.3,7.9-11.6
			L95,53.6L97.8,52.3z"/>
		<path class="st3" d="M95,94.2H44.7c-4.2,0-7-2.8-7-7c0-4.7,3.3-9.3,7.9-11.6L95,53.6l2.8-1.4v-2.8L45.1,72.7
			c-6.1,2.8-10.2,8.8-10.2,14.9l0,0c0,5.6,3.7,9.3,8.8,9.3l54,0.5v-2.8L95,94.2z"/>
		<g>
			<polygon class="st2" points="57.7,76.5 57.7,92.8 62.8,89.5 67.5,91.8 67.5,73.2 			"/>
			<polygon class="st3" points="69.8,90.4 64.7,88.6 59.6,91.8 59.6,75.5 69.8,72.7 			"/>
		</g>
		
			<linearGradient id="SVGID_00000148624598022587311580000015581590139818246583_" gradientUnits="userSpaceOnUse" x1="66.0942" y1="18.9769" x2="64.2103" y2="86.0567" gradientTransform="matrix(1 0 0 -1 0 107.2756)">
			<stop  offset="0" style="stop-color:#2CA2DB"/>
			<stop  offset="1" style="stop-color:#1C6AB3"/>
		</linearGradient>
		<path style="fill:url(#SVGID_00000148624598022587311580000015581590139818246583_);" d="M44.2,69c-4.2,1.9-7.5,5.1-9.3,8.4l0,0
			l0,0c0,0-0.9,1.4-1.4,4.2l0,0l1.4,6.1l0,0l0,0l0,0l0,0l0,0l0,0l0,0l0,0v-0.5c0,0,0,0,0-0.5c0-0.5,0-0.5,0-0.9c0,0,0,0,0-0.5
			c0-0.5,0-0.5,0-0.9l0,0v-0.5l0,0c0-0.5,0-0.5,0.5-0.9c0,0,0,0,0-0.5s0-0.5,0.5-0.9l0,0c0-0.5,0-0.5,0.5-0.9l0,0
			c0-0.5,0.5-0.5,0.5-0.9c1.9-3.3,4.7-6.1,7.9-7.5l9.3-4.2L97.3,49v-3.7L44.2,69z M34.9,87.6L34.9,87.6L34.9,87.6L34.9,87.6z"/>
	</g>
</g>
<g>
	<g id="_x23_1f71f2ff">
		<path class="st3" d="M54.2,31l0.3-0.1c0.4-0.1,0.9-0.1,1.3-0.1c0.3,0.1,0.6,0.2,0.9,0.4c0.4,0.2,0.8,0.6,1.1,1
			c0.3,0.4,0.5,0.8,0.8,1.2c0.3,0.4,0.7,0.8,1.1,1.1c0.3,0.2,0.6,0.3,1,0.4c0.4,0.1,0.9,0,1.3-0.1c1-0.4,2-0.7,3.1-1.1
			c0.3-0.1,0.5-0.2,0.8-0.3c0.4-0.1,0.8-0.1,1.1-0.1c0.2,0,0.3,0.1,0.5,0.2c0.3,0.1,0.5,0.3,0.8,0.5c0.7,0.6,1.3,1.2,2,1.8
			c-0.2,0.1-0.4,0.2-0.6,0.2c-0.2,0.1-0.4,0.1-0.6,0.2c-1.2,0.4-2.4,0.9-3.6,1.3c-0.4,0.1-0.7,0.2-1,0.4c-0.3,0.1-0.5,0.2-0.8,0.3
			c-0.4,0.1-0.7,0.1-1.1,0.1c-0.5-0.1-0.9-0.2-1.3-0.5c-0.4-0.3-0.7-0.5-1-0.8c-0.7-0.6-1.4-1.3-2.1-1.8c-0.3-0.2-0.6-0.4-1-0.5
			c-0.4-0.1-0.8-0.1-1.3,0c-0.5,0.1-1,0.3-1.5,0.4c-0.4,0.1-0.7,0.3-1.1,0.4c0.2-1.1,0.4-2.1,0.6-3.2C54,31.8,54.1,31.4,54.2,31z"/>
		<path class="st3" d="M54.4,40.8c0.1,0,0.2-0.1,0.3-0.1c0.6-0.2,1.2-0.4,1.8-0.7c0.3-0.1,0.6-0.2,1-0.3c0.5-0.2,1.1-0.3,1.6-0.3
			c0.3,0,0.7,0.1,1,0.3c0.4,0.2,0.7,0.5,1.1,0.8c0.6,0.6,1.3,1.1,1.9,1.7c0.4,0.3,0.8,0.7,1.2,1c0.3,0.2,0.6,0.4,1,0.5
			c0.5,0.1,1.1,0.1,1.6,0c0.5-0.1,1.1-0.3,1.6-0.5c2.5-0.9,4.9-1.8,7.4-2.7c0.2-0.1,0.5-0.2,0.7-0.3c0.3-0.1,0.6-0.2,1-0.3
			c0.5-0.2,1-0.3,1.5-0.2c0.4,0.1,0.8,0.3,1.1,0.5c0.7,0.6,1.4,1.2,2.1,1.8c0.2,0.2,0.5,0.4,0.7,0.6c-4.1,1.5-8.2,3-12.3,4.5
			c-1,0.3-2.1,0.4-3.1,0c-0.4-0.2-0.8-0.4-1.2-0.8c-0.7-0.6-1.3-1.1-2-1.7c-0.5-0.4-0.9-0.8-1.5-1c-0.4-0.2-0.8-0.2-1.2-0.2
			c-0.7,0-1.3,0.2-1.9,0.3c-0.4,0.1-0.8,0.2-1.1,0.4c-0.7,0.3-1.4,0.5-2.1,0.8c-0.4,0.2-0.8,0.3-1.2,0.5c-1,0.4-2.1,0.8-3.1,1.1
			c-0.4,0.1-0.7,0.3-1.1,0.4c0.3-1.6,0.6-3.1,1-4.7c0-0.2,0-0.3,0.1-0.5c0.1,0,0.1-0.1,0.2-0.1C53,41.3,53.7,41.1,54.4,40.8z"/>
	</g>
	<g id="_x23_61eabcff">
		<path class="st3" d="M53.1,36.6c0-0.1,0-0.2,0.1-0.3c0.3-0.1,0.6-0.2,0.9-0.3c0.6-0.2,1.1-0.4,1.7-0.6c0.4-0.1,0.8-0.1,1.1-0.1
			c0.5,0,0.9,0.2,1.3,0.6c0.3,0.3,0.6,0.6,1,0.8c0.4,0.4,0.8,0.7,1.2,1.1c0.3,0.3,0.6,0.6,1,0.8c0.6,0.4,1.3,0.7,2,0.6
			c0.4,0,0.8-0.1,1.2-0.3c0.3-0.1,0.6-0.2,0.8-0.3c0.7-0.3,1.4-0.5,2.1-0.8c0.5-0.2,1.1-0.4,1.6-0.6c1.1-0.4,2.3-0.8,3.4-1.2
			c0.5-0.2,1-0.3,1.6-0.3c0.4,0,0.9,0.2,1.2,0.4c0.3,0.2,0.6,0.4,0.9,0.7c0.4,0.4,0.8,0.8,1.3,1.1c0.2,0.2,0.4,0.4,0.7,0.6
			c-0.3,0.1-0.7,0.2-1,0.4c-0.2,0.1-0.5,0.2-0.7,0.3c-0.6,0.2-1.3,0.5-1.9,0.7c-0.4,0.2-0.9,0.3-1.3,0.5c-0.3,0.1-0.7,0.3-1,0.4
			c-0.2,0.1-0.4,0.2-0.6,0.2c-0.4,0.1-0.8,0.3-1.2,0.4c-0.3,0.1-0.5,0.2-0.7,0.3c-0.5,0.2-1,0.4-1.5,0.5c-0.3,0.1-0.6,0.2-0.9,0.3
			c-0.3,0.1-0.6,0.2-0.9,0.2c-0.4,0.1-0.8,0-1.2-0.1c-0.5-0.2-0.9-0.5-1.3-0.9c-0.5-0.5-1-0.9-1.6-1.4c-0.2-0.2-0.4-0.4-0.6-0.5
			c-0.3-0.2-0.6-0.5-0.9-0.7c-0.4-0.3-0.8-0.4-1.2-0.5c-0.7-0.1-1.5,0-2.2,0.3c-0.3,0.1-0.7,0.2-1,0.3c-1.1,0.4-2.2,0.8-3.4,1.2
			c-0.2,0.1-0.4,0.1-0.5,0.2c0.2-0.9,0.4-1.7,0.5-2.6C52.9,37.7,53,37.1,53.1,36.6z"/>
	</g>
</g>
</svg>
