<?xml version="1.0" encoding="utf-8"?>
<!-- Generator: Adobe Illustrator 25.4.1, SVG Export Plug-In . SVG Version: 6.00 Build 0)  -->
<svg version="1.1" id="Layer_1" xmlns="http://www.w3.org/2000/svg" xmlns:xlink="http://www.w3.org/1999/xlink" x="0px" y="0px"
	 viewBox="0 0 506.1 105.9" style="enable-background:new 0 0 506.1 105.9;" xml:space="preserve">
<style type="text/css">
	.st0{fill:url(#SVGID_1_);}
	.st1{fill:url(#SVGID_00000148625720533544993760000016190473613418598302_);}
	.st2{opacity:0.71;fill:#F99D1C;enable-background:new    ;}
	.st3{fill:#FFFFFF;}
	.st4{fill:url(#SVGID_00000157293733072631187820000003999171120902530741_);}
	.st5{font-family:'RedHatDisplay-Black';}
	.st6{font-size:68.532px;}
	.st7{fill:url(#SVGID_00000081645557102197785770000000313838281115520415_);}
	.st8{fill:url(#SVGID_00000165218806622387935190000009928673152421911977_);}
	.st9{fill:url(#SVGID_00000012430973423892124880000017903645814003202180_);}
	.st10{fill:url(#SVGID_00000043450862498135770260000002913534170202476166_);}
	.st11{fill:url(#SVGID_00000022546980027220638300000008638277147532857234_);}
	.st12{fill:url(#SVGID_00000183969063330087956650000008832497815592280502_);}
	.st13{fill:url(#SVGID_00000114040990093558765580000005058212320351760002_);}
	.st14{fill:url(#SVGID_00000002350872350675567550000014977428881858177983_);}
</style>
<g>
	
		<linearGradient id="SVGID_1_" gradientUnits="userSpaceOnUse" x1="45.6516" y1="54.1764" x2="35.5887" y2="51.6605" gradientTransform="matrix(1 0 0 -1 0 107.2756)">
		<stop  offset="0" style="stop-color:#25BBED"/>
		<stop  offset="1" style="stop-color:#0E7DC1"/>
	</linearGradient>
	<path class="st0" d="M104.5,45.3v4.2L61.6,68.6l-9.3,4.2c-3.3,1.4-6.1,4.2-7.9,7.5c-1.4,2.3-2.3,5.1-2.3,7.5l0,0l0,0l-1.4-6.1l0,0
		l-7.9-37.7c-1.4-5.6,2.3-11.2,8.4-14L89.6,8.5L104.5,45.3z"/>
	<g>
		
			<linearGradient id="SVGID_00000014613470520439031240000012191468871611760053_" gradientUnits="userSpaceOnUse" x1="69.553" y1="-5.955983e-02" x2="85.3334" y2="-26.6368" gradientTransform="matrix(1 -0.2761 0 -1 0 83.5839)">
			<stop  offset="0" style="stop-color:#F05822"/>
			<stop  offset="1" style="stop-color:#FCD600"/>
		</linearGradient>
		<path style="fill:url(#SVGID_00000014613470520439031240000012191468871611760053_);" d="M57.4,78.3l-5.6,1.9L57.4,78.3l30.7-8.8
			l10.2-3.3l2.8-0.9l3.3,7.9l-6.1,1.4l-10.2,1.9l-33.1,7l-2.8,0.5l2.8-0.5l33.1-5.1l10.2-1.4l2.8-0.5l3.3,8.8l-49.4,4.2L51.4,90h3.7
			l45.2-1.9l4.2,6.5h-2.8l-44.2-0.5h-6.5c-4.2,0-7-2.8-7-7c0-4.7,3.3-9.3,7.9-11.6l49.8-21.9l2.8-1.4V62L57.4,78.3z"/>
		<path class="st2" d="M104.5,52.3v2.3L64.4,72.3c-2.8,1.4-5.1,3.3-7,5.6c0,0,0,0,0,0.5l0,0c-0.9,1.4-1.9,3.3-2.3,5.1l0,0
			c-0.5,0.9-0.5,2.3-0.5,3.3c0,0.9,0,1.9,0.5,2.3l0,0c0.5,1.9,1.4,3.3,2.8,4.7h-6.5c-4.2,0-7-2.8-7-7c0-4.7,3.3-9.3,7.9-11.6
			l49.4-21.4L104.5,52.3z"/>
		<path class="st3" d="M101.7,94.2H51.4c-4.2,0-7-2.8-7-7c0-4.7,3.3-9.3,7.9-11.6l49.4-21.9l2.8-1.4v-2.8L51.8,72.7
			c-6.1,2.8-10.2,8.8-10.2,14.9l0,0c0,5.6,3.7,9.3,8.8,9.3l54,0.5v-2.8L101.7,94.2z"/>
		<g>
			<polygon class="st2" points="64.4,76.5 64.4,92.8 69.5,89.5 74.2,91.8 74.2,73.2 			"/>
			<polygon class="st3" points="76.5,90.4 71.4,88.6 66.3,91.8 66.3,75.5 76.5,72.7 			"/>
		</g>
		
			<linearGradient id="SVGID_00000026142267603070775370000003812904552739963831_" gradientUnits="userSpaceOnUse" x1="72.7935" y1="18.9769" x2="70.9095" y2="86.0567" gradientTransform="matrix(1 0 0 -1 0 107.2756)">
			<stop  offset="0" style="stop-color:#2CA2DB"/>
			<stop  offset="1" style="stop-color:#1C6AB3"/>
		</linearGradient>
		<path style="fill:url(#SVGID_00000026142267603070775370000003812904552739963831_);" d="M50.9,69c-4.2,1.9-7.5,5.1-9.3,8.4l0,0
			l0,0c0,0-0.9,1.4-1.4,4.2l0,0l1.4,6.1l0,0l0,0l0,0l0,0l0,0l0,0l0,0l0,0v-0.5c0,0,0,0,0-0.5c0-0.5,0-0.5,0-0.9c0,0,0,0,0-0.5
			c0-0.5,0-0.5,0-0.9l0,0v-0.5l0,0c0-0.5,0-0.5,0.5-0.9c0,0,0,0,0-0.5s0-0.5,0.5-0.9l0,0c0-0.5,0-0.5,0.5-0.9l0,0
			c0-0.5,0.5-0.5,0.5-0.9c1.9-3.3,4.7-6.1,7.9-7.5l9.3-4.2L104,49v-3.7L50.9,69z M41.6,87.6L41.6,87.6L41.6,87.6L41.6,87.6z"/>
	</g>
</g>
<g>
	<g id="_x23_1f71f2ff">
		<path class="st3" d="M60.9,31l0.3-0.1c0.4-0.1,0.9-0.1,1.3-0.1c0.3,0.1,0.6,0.2,0.9,0.4c0.4,0.2,0.8,0.6,1.1,1
			c0.3,0.4,0.5,0.8,0.8,1.2c0.3,0.4,0.7,0.8,1.1,1.1c0.3,0.2,0.6,0.3,1,0.4c0.4,0.1,0.9,0,1.3-0.1c1-0.4,2-0.7,3.1-1.1
			c0.3-0.1,0.5-0.2,0.8-0.3c0.4-0.1,0.8-0.1,1.1-0.1c0.2,0,0.3,0.1,0.5,0.2c0.3,0.1,0.5,0.3,0.8,0.5c0.7,0.6,1.3,1.2,2,1.8
			c-0.2,0.1-0.4,0.2-0.6,0.2c-0.2,0.1-0.4,0.1-0.6,0.2c-1.2,0.4-2.4,0.9-3.6,1.3c-0.4,0.1-0.7,0.2-1,0.4c-0.3,0.1-0.5,0.2-0.8,0.3
			c-0.4,0.1-0.7,0.1-1.1,0.1c-0.5-0.1-0.9-0.2-1.3-0.5c-0.4-0.3-0.7-0.5-1-0.8c-0.7-0.6-1.4-1.3-2.1-1.8c-0.3-0.2-0.6-0.4-1-0.5
			c-0.4-0.1-0.8-0.1-1.3,0c-0.5,0.1-1,0.3-1.5,0.4c-0.4,0.1-0.7,0.3-1.1,0.4c0.2-1.1,0.4-2.1,0.6-3.2C60.7,31.8,60.8,31.4,60.9,31z"
			/>
		<path class="st3" d="M61.1,40.8c0.1,0,0.2-0.1,0.3-0.1c0.6-0.2,1.2-0.4,1.8-0.7c0.3-0.1,0.6-0.2,1-0.3c0.5-0.2,1.1-0.3,1.6-0.3
			c0.3,0,0.7,0.1,1,0.3c0.4,0.2,0.7,0.5,1.1,0.8c0.6,0.6,1.3,1.1,1.9,1.7c0.4,0.3,0.8,0.7,1.2,1c0.3,0.2,0.6,0.4,1,0.5
			c0.5,0.1,1.1,0.1,1.6,0c0.5-0.1,1.1-0.3,1.6-0.5c2.5-0.9,4.9-1.8,7.4-2.7c0.2-0.1,0.5-0.2,0.7-0.3c0.3-0.1,0.6-0.2,1-0.3
			c0.5-0.2,1-0.3,1.5-0.2c0.4,0.1,0.8,0.3,1.1,0.5c0.7,0.6,1.4,1.2,2.1,1.8c0.2,0.2,0.5,0.4,0.7,0.6c-4.1,1.5-8.2,3-12.3,4.5
			c-1,0.3-2.1,0.4-3.1,0c-0.4-0.2-0.8-0.4-1.2-0.8c-0.7-0.6-1.3-1.1-2-1.7c-0.5-0.4-0.9-0.8-1.5-1c-0.4-0.2-0.8-0.2-1.2-0.2
			c-0.7,0-1.3,0.2-1.9,0.3c-0.4,0.1-0.8,0.2-1.1,0.4c-0.7,0.3-1.4,0.5-2.1,0.8c-0.4,0.2-0.8,0.3-1.2,0.5c-1,0.4-2.1,0.8-3.1,1.1
			c-0.4,0.1-0.7,0.3-1.1,0.4c0.3-1.6,0.6-3.1,1-4.7c0-0.2,0-0.3,0.1-0.5c0.1,0,0.1-0.1,0.2-0.1C59.7,41.3,60.4,41.1,61.1,40.8z"/>
	</g>
	<g id="_x23_61eabcff">
		<path class="st3" d="M59.8,36.6c0-0.1,0-0.2,0.1-0.3c0.3-0.1,0.6-0.2,0.9-0.3c0.6-0.2,1.1-0.4,1.7-0.6c0.4-0.1,0.8-0.1,1.1-0.1
			c0.5,0,0.9,0.2,1.3,0.6c0.3,0.3,0.6,0.6,1,0.8c0.4,0.4,0.8,0.7,1.2,1.1c0.3,0.3,0.6,0.6,1,0.8c0.6,0.4,1.3,0.7,2,0.6
			c0.4,0,0.8-0.1,1.2-0.3c0.3-0.1,0.6-0.2,0.8-0.3c0.7-0.3,1.4-0.5,2.1-0.8c0.5-0.2,1.1-0.4,1.6-0.6c1.1-0.4,2.3-0.8,3.4-1.2
			c0.5-0.2,1-0.3,1.6-0.3c0.4,0,0.9,0.2,1.2,0.4c0.3,0.2,0.6,0.4,0.9,0.7c0.4,0.4,0.8,0.8,1.3,1.1c0.2,0.2,0.4,0.4,0.7,0.6
			c-0.3,0.1-0.7,0.2-1,0.4c-0.2,0.1-0.5,0.2-0.7,0.3c-0.6,0.2-1.3,0.5-1.9,0.7c-0.4,0.2-0.9,0.3-1.3,0.5c-0.3,0.1-0.7,0.3-1,0.4
			c-0.2,0.1-0.4,0.2-0.6,0.2c-0.4,0.1-0.8,0.3-1.2,0.4c-0.3,0.1-0.5,0.2-0.7,0.3c-0.5,0.2-1,0.4-1.5,0.5c-0.3,0.1-0.6,0.2-0.9,0.3
			c-0.3,0.1-0.6,0.2-0.9,0.2c-0.4,0.1-0.8,0-1.2-0.1c-0.5-0.2-0.9-0.5-1.3-0.9c-0.5-0.5-1-0.9-1.6-1.4c-0.2-0.2-0.4-0.4-0.6-0.5
			c-0.3-0.2-0.6-0.5-0.9-0.7c-0.4-0.3-0.8-0.4-1.2-0.5c-0.7-0.1-1.5,0-2.2,0.3c-0.3,0.1-0.7,0.2-1,0.3c-1.1,0.4-2.2,0.8-3.4,1.2
			c-0.2,0.1-0.4,0.1-0.5,0.2c0.2-0.9,0.4-1.7,0.5-2.6C59.6,37.7,59.7,37.1,59.8,36.6z"/>
	</g>
</g>
<g>
	<text transform="matrix(1 0 0 1 142.9741 77.3405)" class="st5 st6">Edu</text>
	<g>
		
			<linearGradient id="SVGID_00000025420597038254660670000004293445635549754807_" gradientUnits="userSpaceOnUse" x1="146.9487" y1="52.8408" x2="270.8535" y2="52.8408">
			<stop  offset="0" style="stop-color:#25BBED"/>
			<stop  offset="1" style="stop-color:#0E7DC1"/>
		</linearGradient>
		<path style="fill:url(#SVGID_00000025420597038254660670000004293445635549754807_);" d="M146.9,77.3v-48h37.8v10.2h-26v8.6h17.2
			v9.9h-17.2v9h26.3v10.2H146.9z"/>
		
			<linearGradient id="SVGID_00000144339071695689098410000010781822688538286233_" gradientUnits="userSpaceOnUse" x1="146.9487" y1="52.8408" x2="270.8535" y2="52.8408">
			<stop  offset="0" style="stop-color:#25BBED"/>
			<stop  offset="1" style="stop-color:#0E7DC1"/>
		</linearGradient>
		<path style="fill:url(#SVGID_00000144339071695689098410000010781822688538286233_);" d="M208.3,77.8c-3.4,0-6.5-0.8-9.4-2.5
			c-2.8-1.7-5-3.9-6.7-6.7c-1.6-2.8-2.5-6-2.5-9.4c0-3.5,0.8-6.6,2.5-9.4c1.7-2.8,3.9-5,6.8-6.7c2.9-1.6,6-2.5,9.6-2.5
			c1.7,0,3.3,0.2,4.9,0.6c1.6,0.4,3,1,4.4,1.8V29.4l11.1-1.7v49.7h-11v-2.7C215.1,76.8,211.9,77.8,208.3,77.8z M210.2,68.4
			c1.6,0,3-0.2,4.2-0.7c1.3-0.5,2.4-1.2,3.4-2.2V52.8c-1-0.9-2.1-1.6-3.4-2.1c-1.3-0.5-2.7-0.7-4.2-0.7c-1.8,0-3.4,0.4-4.8,1.2
			c-1.4,0.8-2.6,1.9-3.4,3.3c-0.8,1.4-1.3,3-1.3,4.7c0,1.7,0.4,3.3,1.3,4.7c0.8,1.4,2,2.5,3.4,3.3C206.8,68,208.4,68.4,210.2,68.4z"
			/>
		
			<linearGradient id="SVGID_00000063596838492706134970000005170108998510032809_" gradientUnits="userSpaceOnUse" x1="146.9487" y1="52.8408" x2="270.8535" y2="52.8408">
			<stop  offset="0" style="stop-color:#25BBED"/>
			<stop  offset="1" style="stop-color:#0E7DC1"/>
		</linearGradient>
		<path style="fill:url(#SVGID_00000063596838492706134970000005170108998510032809_);" d="M250,78c-2.8,0-5.3-0.6-7.5-1.9
			c-2.2-1.2-3.9-3-5.1-5.2c-1.2-2.2-1.9-4.7-1.9-7.6V41.1h11.1v20.8c0,2,0.6,3.6,1.8,4.8c1.2,1.2,2.8,1.8,4.8,1.8
			c1.4,0,2.7-0.2,3.8-0.8c1.1-0.5,2-1.2,2.7-2.1V41.1h11.1v36.3h-11.1v-2.5C257,77,253.8,78,250,78z"/>
	</g>
</g>
<g>
	<text transform="matrix(1 0 0 1 268.7979 78.6419)" class="st5 st6">TIRTA</text>
	<g>
		
			<linearGradient id="SVGID_00000003795576186936694810000007943892125070119331_" gradientUnits="userSpaceOnUse" x1="270.0312" y1="54.6555" x2="479.3936" y2="54.6555">
			<stop  offset="0" style="stop-color:#F05822"/>
			<stop  offset="1" style="stop-color:#FCD600"/>
		</linearGradient>
		<path style="fill:url(#SVGID_00000003795576186936694810000007943892125070119331_);" d="M285.7,78.6V41.1H270V30.7h43.2v10.4
			h-15.7v37.6H285.7z"/>
		
			<linearGradient id="SVGID_00000142165385361564154540000012192350224830444198_" gradientUnits="userSpaceOnUse" x1="270.0312" y1="54.6555" x2="479.3936" y2="54.6555">
			<stop  offset="0" style="stop-color:#F05822"/>
			<stop  offset="1" style="stop-color:#FCD600"/>
		</linearGradient>
		<path style="fill:url(#SVGID_00000142165385361564154540000012192350224830444198_);" d="M318.4,78.6v-48h11.8v48H318.4z"/>
		
			<linearGradient id="SVGID_00000059281296272440227630000007153163178975376048_" gradientUnits="userSpaceOnUse" x1="270.0312" y1="54.6555" x2="479.3936" y2="54.6555">
			<stop  offset="0" style="stop-color:#F05822"/>
			<stop  offset="1" style="stop-color:#FCD600"/>
		</linearGradient>
		<path style="fill:url(#SVGID_00000059281296272440227630000007153163178975376048_);" d="M338.2,78.6v-48h24.5
			c3.3,0,6.2,0.7,8.8,2c2.6,1.3,4.6,3.1,6,5.4c1.4,2.3,2.2,4.9,2.2,7.9c0,3-0.8,5.7-2.5,8.1s-3.8,4.2-6.5,5.4l10.5,19.2H368l-9-17.5
			h-9v17.5H338.2z M349.9,51.6h11.7c1.8,0,3.3-0.5,4.4-1.5c1.1-1,1.7-2.3,1.7-3.9c0-1.6-0.6-2.9-1.7-3.9c-1.1-1-2.6-1.5-4.4-1.5
			h-11.7V51.6z"/>
		
			<linearGradient id="SVGID_00000112591380740902589800000013713726651278765965_" gradientUnits="userSpaceOnUse" x1="270.0312" y1="54.6555" x2="479.3936" y2="54.6555">
			<stop  offset="0" style="stop-color:#F05822"/>
			<stop  offset="1" style="stop-color:#FCD600"/>
		</linearGradient>
		<path style="fill:url(#SVGID_00000112591380740902589800000013713726651278765965_);" d="M398.6,78.6V41.1h-15.7V30.7h43.2v10.4
			h-15.7v37.6H398.6z"/>
		
			<linearGradient id="SVGID_00000101817265166940563680000001702537588913023413_" gradientUnits="userSpaceOnUse" x1="270.0312" y1="54.6555" x2="479.3936" y2="54.6555">
			<stop  offset="0" style="stop-color:#F05822"/>
			<stop  offset="1" style="stop-color:#FCD600"/>
		</linearGradient>
		<path style="fill:url(#SVGID_00000101817265166940563680000001702537588913023413_);" d="M426.8,78.6l19.7-48H460l19.4,48h-12.7
			l-4.4-11.6h-18.7l-4.5,11.6H426.8z M447.1,57.7h11.7L453,42.3L447.1,57.7z"/>
	</g>
</g>
</svg>
